P3
10 2
255
0 0 0 0 0 0 0 0 0 0 0 0 0 0 0 0 0 0 0 0 0 0 0 0 0 0 0 0 0 0 
255 204 153 255 204 153 255 204 153 255 204 153 255 204 153 255 204 153 255 204 153 255 204 153 255 204 153 255 204 153 
